<mxfile host="Electron" modified="2023-06-27T22:50:06.201Z" agent="Mozilla/5.0 (Windows NT 10.0; Win64; x64) AppleWebKit/537.36 (KHTML, like Gecko) draw.io/21.5.1 Chrome/112.0.5615.204 Electron/24.6.0 Safari/537.36" etag="IF6cG5OvOXAnMECoqQ1m" version="21.5.1" type="device">
  <diagram name="Página-1" id="--aWKNJnzLhTfHcInBX8">
    <mxGraphModel dx="1050" dy="621" grid="1" gridSize="10" guides="1" tooltips="1" connect="1" arrows="1" fold="1" page="1" pageScale="1" pageWidth="827" pageHeight="1169" math="0" shadow="0">
      <root>
        <mxCell id="0" />
        <mxCell id="1" parent="0" />
        <mxCell id="qemDWRUFwyfa37fKoSQL-12" value="Server" style="verticalAlign=top;align=center;spacingTop=8;spacingLeft=2;spacingRight=12;shape=cube;size=10;direction=south;fontStyle=4;html=1;whiteSpace=wrap;movable=0;resizable=0;rotatable=0;deletable=0;editable=0;locked=1;connectable=0;" vertex="1" parent="1">
          <mxGeometry x="320" y="90" width="460" height="410" as="geometry" />
        </mxCell>
        <mxCell id="qemDWRUFwyfa37fKoSQL-1" value="" style="shape=folder;fontStyle=1;spacingTop=10;tabWidth=194;tabHeight=22;tabPosition=left;html=1;rounded=0;shadow=0;comic=0;labelBackgroundColor=none;strokeWidth=1;fillColor=none;fontFamily=Verdana;fontSize=10;align=center;movable=0;resizable=0;rotatable=0;deletable=0;editable=0;locked=1;connectable=0;" vertex="1" parent="1">
          <mxGeometry x="30" y="20" width="780" height="540" as="geometry" />
        </mxCell>
        <mxCell id="qemDWRUFwyfa37fKoSQL-23" value="HTTP protocol" style="edgeStyle=orthogonalEdgeStyle;rounded=0;orthogonalLoop=1;jettySize=auto;html=1;entryX=0;entryY=0;entryDx=40;entryDy=140;entryPerimeter=0;" edge="1" parent="1" source="qemDWRUFwyfa37fKoSQL-9" target="qemDWRUFwyfa37fKoSQL-13">
          <mxGeometry relative="1" as="geometry">
            <mxPoint x="280" y="320" as="targetPoint" />
          </mxGeometry>
        </mxCell>
        <mxCell id="qemDWRUFwyfa37fKoSQL-9" value="Client" style="verticalAlign=top;align=center;spacingTop=8;spacingLeft=2;spacingRight=12;shape=cube;size=10;direction=south;fontStyle=4;html=1;whiteSpace=wrap;container=0;movable=0;resizable=0;rotatable=0;deletable=0;editable=0;locked=1;connectable=0;" vertex="1" parent="1">
          <mxGeometry x="60" y="120" width="200" height="160" as="geometry" />
        </mxCell>
        <mxCell id="qemDWRUFwyfa37fKoSQL-11" value="Web browser" style="verticalAlign=top;align=center;spacingTop=8;spacingLeft=2;spacingRight=12;shape=cube;size=10;direction=south;fontStyle=4;html=1;whiteSpace=wrap;container=0;movable=0;resizable=0;rotatable=0;deletable=0;editable=0;locked=1;connectable=0;" vertex="1" parent="1">
          <mxGeometry x="90" y="170" width="140" height="80" as="geometry" />
        </mxCell>
        <mxCell id="qemDWRUFwyfa37fKoSQL-28" style="edgeStyle=orthogonalEdgeStyle;rounded=0;orthogonalLoop=1;jettySize=auto;html=1;entryX=0;entryY=0;entryDx=45;entryDy=150;entryPerimeter=0;" edge="1" parent="1" source="qemDWRUFwyfa37fKoSQL-13" target="qemDWRUFwyfa37fKoSQL-14">
          <mxGeometry relative="1" as="geometry" />
        </mxCell>
        <mxCell id="qemDWRUFwyfa37fKoSQL-13" value="Node" style="verticalAlign=top;align=center;spacingTop=8;spacingLeft=2;spacingRight=12;shape=cube;size=10;direction=south;fontStyle=4;html=1;whiteSpace=wrap;movable=0;resizable=0;rotatable=0;deletable=0;editable=0;locked=1;connectable=0;" vertex="1" parent="1">
          <mxGeometry x="390" y="170" width="140" height="70" as="geometry" />
        </mxCell>
        <mxCell id="qemDWRUFwyfa37fKoSQL-14" value="BD Repository" style="verticalAlign=top;align=center;spacingTop=8;spacingLeft=2;spacingRight=12;shape=cube;size=10;direction=south;fontStyle=4;html=1;whiteSpace=wrap;movable=0;resizable=0;rotatable=0;deletable=0;editable=0;locked=1;connectable=0;" vertex="1" parent="1">
          <mxGeometry x="600" y="160" width="150" height="80" as="geometry" />
        </mxCell>
        <mxCell id="qemDWRUFwyfa37fKoSQL-21" value="deploy" style="edgeStyle=orthogonalEdgeStyle;rounded=0;orthogonalLoop=1;jettySize=auto;html=1;entryX=0;entryY=0;entryDx=70;entryDy=75;entryPerimeter=0;" edge="1" parent="1" source="qemDWRUFwyfa37fKoSQL-18" target="qemDWRUFwyfa37fKoSQL-13">
          <mxGeometry relative="1" as="geometry" />
        </mxCell>
        <mxCell id="qemDWRUFwyfa37fKoSQL-18" value="«Artifact»&lt;br&gt;&lt;b&gt;Main Project&lt;/b&gt;" style="html=1;dropTarget=0;whiteSpace=wrap;movable=0;resizable=0;rotatable=0;deletable=0;editable=0;locked=1;connectable=0;" vertex="1" parent="1">
          <mxGeometry x="400" y="290" width="110" height="60" as="geometry" />
        </mxCell>
        <mxCell id="qemDWRUFwyfa37fKoSQL-19" value="" style="shape=module;jettyWidth=8;jettyHeight=4;" vertex="1" parent="qemDWRUFwyfa37fKoSQL-18">
          <mxGeometry x="1" width="20" height="20" relative="1" as="geometry">
            <mxPoint x="-27" y="7" as="offset" />
          </mxGeometry>
        </mxCell>
        <mxCell id="qemDWRUFwyfa37fKoSQL-31" style="edgeStyle=orthogonalEdgeStyle;rounded=0;orthogonalLoop=1;jettySize=auto;html=1;" edge="1" parent="1" source="qemDWRUFwyfa37fKoSQL-24" target="qemDWRUFwyfa37fKoSQL-18">
          <mxGeometry relative="1" as="geometry" />
        </mxCell>
        <mxCell id="qemDWRUFwyfa37fKoSQL-24" value="«Artifact»&lt;br&gt;&lt;b&gt;package&lt;/b&gt;" style="html=1;dropTarget=0;whiteSpace=wrap;movable=0;resizable=0;rotatable=0;deletable=0;editable=0;locked=1;connectable=0;" vertex="1" parent="1">
          <mxGeometry x="400" y="390" width="110" height="60" as="geometry" />
        </mxCell>
        <mxCell id="qemDWRUFwyfa37fKoSQL-25" value="" style="shape=module;jettyWidth=8;jettyHeight=4;" vertex="1" parent="qemDWRUFwyfa37fKoSQL-24">
          <mxGeometry x="1" width="20" height="20" relative="1" as="geometry">
            <mxPoint x="-27" y="7" as="offset" />
          </mxGeometry>
        </mxCell>
        <mxCell id="qemDWRUFwyfa37fKoSQL-32" style="edgeStyle=orthogonalEdgeStyle;rounded=0;orthogonalLoop=1;jettySize=auto;html=1;" edge="1" parent="1" source="qemDWRUFwyfa37fKoSQL-26" target="qemDWRUFwyfa37fKoSQL-18">
          <mxGeometry relative="1" as="geometry" />
        </mxCell>
        <mxCell id="qemDWRUFwyfa37fKoSQL-26" value="«Artifact»&lt;br&gt;&lt;b&gt;package&lt;/b&gt;" style="html=1;dropTarget=0;whiteSpace=wrap;movable=0;resizable=0;rotatable=0;deletable=0;editable=0;locked=1;connectable=0;" vertex="1" parent="1">
          <mxGeometry x="610" y="290" width="110" height="60" as="geometry" />
        </mxCell>
        <mxCell id="qemDWRUFwyfa37fKoSQL-27" value="" style="shape=module;jettyWidth=8;jettyHeight=4;" vertex="1" parent="qemDWRUFwyfa37fKoSQL-26">
          <mxGeometry x="1" width="20" height="20" relative="1" as="geometry">
            <mxPoint x="-27" y="7" as="offset" />
          </mxGeometry>
        </mxCell>
        <mxCell id="qemDWRUFwyfa37fKoSQL-33" style="edgeStyle=orthogonalEdgeStyle;rounded=0;orthogonalLoop=1;jettySize=auto;html=1;entryX=1;entryY=0.5;entryDx=0;entryDy=0;" edge="1" parent="1" source="qemDWRUFwyfa37fKoSQL-29" target="qemDWRUFwyfa37fKoSQL-18">
          <mxGeometry relative="1" as="geometry" />
        </mxCell>
        <mxCell id="qemDWRUFwyfa37fKoSQL-29" value="«Artifact»&lt;br&gt;&lt;b&gt;package&lt;/b&gt;" style="html=1;dropTarget=0;whiteSpace=wrap;movable=0;resizable=0;rotatable=0;deletable=0;editable=0;locked=1;connectable=0;" vertex="1" parent="1">
          <mxGeometry x="610" y="390" width="110" height="60" as="geometry" />
        </mxCell>
        <mxCell id="qemDWRUFwyfa37fKoSQL-30" value="" style="shape=module;jettyWidth=8;jettyHeight=4;" vertex="1" parent="qemDWRUFwyfa37fKoSQL-29">
          <mxGeometry x="1" width="20" height="20" relative="1" as="geometry">
            <mxPoint x="-27" y="7" as="offset" />
          </mxGeometry>
        </mxCell>
      </root>
    </mxGraphModel>
  </diagram>
</mxfile>
